<?xml version="1.0" encoding="utf-8"?>
<!-- Generator: Adobe Illustrator 19.1.0, SVG Export Plug-In . SVG Version: 6.00 Build 0)  -->
<svg version="1.1" id="Layer_1" xmlns="http://www.w3.org/2000/svg" xmlns:xlink="http://www.w3.org/1999/xlink" x="0px" y="0px"
	 viewBox="-209 126 80 100" style="enable-background:new -209 126 80 100;" xml:space="preserve">
<style type="text/css">
	.st0{font-family:'Quicksand-Bold';}
	.st1{font-size:14px;}
</style>
<text transform="matrix(1 0 0 1 -191.2266 221.9998)" class="st0 st1">CRISS</text>
<g>
	<path d="M-168.8,127c22.6,0.3,40.1,18.2,39.8,40.8c-0.3,22.2-18.4,39.5-41.1,39.2c-21.5-0.2-39.3-18.8-38.9-40.5
		C-208.6,144.5-190.5,126.7-168.8,127z M-176,186.8c0,0.2,0.1,0.4,0.1,0.6c-1.9,1.1-4.1,1.8-5.7,3.2c-2.1,1.9-3.8,4.1-5.4,6.4
		c-0.8,1.1-0.5,2.3,1.1,3c11.6,5.5,23.1,5.4,34.5-0.3c1.5-0.8,1.6-1.7,1-3.1c-1.2-3-3.5-5.1-6.2-6.7c-1.6-1-3.3-1.7-4.9-2.6
		c6.4,0.1,12.2,1.9,17.6,5.4c-2.2-7.1-8.4-8.2-14.4-9.6c7.4-1.3,14.4-1.1,21.2,3.1c1.6-4.2,1.3-8.1-0.4-12.4
		c-0.7,1.5-1.1,2.5-1.6,3.5c-0.5,0.9-0.9,1.9-1.5,2.7c-0.6,0.8-1.3,1.5-2,2.3c-0.2-0.8,0.1-1.3,0.3-1.8c1.1-3.1,1.2-6.2-0.7-8.9
		c-1.9-2.7-5-3-8-2.4c-2,0.4-4,1.1-5.9,1.8c-1.8,0.7-3.5,1.8-4.9,2.6c-1-2.4-2.1-4.7-2.9-7c-0.4-1.1-0.7-2.4-0.4-3.5
		c2.9-10.5,2.4-20.8-0.9-31.1c-0.5-1.7-1.5-2.1-3.1-2.1c-1.7-0.1-2.3,0.7-2.8,2.2c-3.3,10.3-3.8,20.6-0.9,31.1
		c0.2,0.9,0.2,2-0.1,2.9c-1,2.5-2.1,5-3.3,7.6c-0.4-0.2-1-0.6-1.7-1c-3.5-1.9-7.1-3.7-11.2-3.6c-4.4,0-6.9,2.2-7.1,6.6
		c-0.1,2.2,0.5,4.4,0.8,6.6c-0.1,0.1-0.2,0.2-0.3,0.3c-1.6-2.7-3.2-5.4-4.9-8.3c-1.5,4.1-1.8,8.1-0.2,12.3c7.4-4,15.3-5.1,21.8-3.1
		c-6.2,1.3-12.4,2.4-14.9,9.5c3.1-1.4,5.8-3,8.7-3.9C-182.1,187.9-179,187.5-176,186.8z"/>
	<path d="M-168.9,192.3c-1.8-4.6-3.6-9.3-5.3-13.9c1.8-3.9,3.6-8.1,5.4-12c1.7,3.9,3.5,8,5.2,12.1
		C-165.3,183-167.2,187.8-168.9,192.3z M-168.9,169.2c-1,2.4-2,4.5-2.9,6.7c-0.1,0.3-0.2,0.8,0,1.1c1,1.8,2,3.5,2.9,5.1
		c0.8-1.5,1.7-3,2.5-4.6c0.3-0.5,0.4-1.3,0.2-1.8C-167,173.6-167.9,171.6-168.9,169.2z"/>
</g>
</svg>
