<?xml version="1.0" encoding="utf-8"?>
<!-- Generator: Adobe Illustrator 19.1.0, SVG Export Plug-In . SVG Version: 6.00 Build 0)  -->
<svg version="1.1" id="Layer_1" xmlns="http://www.w3.org/2000/svg" xmlns:xlink="http://www.w3.org/1999/xlink" x="0px" y="0px"
	 viewBox="-209 126 80 100" style="enable-background:new -209 126 80 100;" xml:space="preserve">
<style type="text/css">
	.st0{font-family:'Quicksand-Bold';}
	.st1{font-size:14px;}
</style>
<text transform="matrix(1 0 0 1 -199.2266 220.9998)" class="st0 st1">FREHLEY</text>
<path d="M-209,167c0-22.1,17.9-40,40.1-40c21.9,0,39.9,18,39.9,40c0,22.1-17.9,40-40.1,40C-191.1,207-209,189.1-209,167z
	 M-197.8,174.1c-0.3-0.1-0.6-0.2-0.9-0.2c-0.8,2.4-1.6,4.8-2.3,7.2c-0.8,2.6,0,4.8,1.5,7c15.1,21.6,47.2,21.2,61.6-0.9
	c2.3-3.5,1.3-10.3-1.9-13.1c-2,11.1-2.7,13-5.9,15.6c1.4-7.6,1.9-14.9-2.6-21.6c-0.4,5.9-1.8,11.3-7.2,14.9
	c3.1-6.4,2.9-12.2-2.8-17.9c-2.6,2.8-5,5.4-7.9,8.5c0-3.8,0-6.9,0-10c-2,0-3.8,0-5.8,0c0,3.3,0,6.4,0,10.1c-3-3-5.5-5.5-8.2-8.1
	c-5.3,5.2-5.4,11.1-2.3,17.4c-5.5-3.6-6.8-9-7.3-15c-4.5,6.7-3.9,14-2.8,21.4C-196.5,185.1-197.8,179.8-197.8,174.1z M-174.1,168.6
	c0.2-0.1,0.4-0.2,0.7-0.3c0-2.2,0-4.5,0-6.7c3.2,0,6.2,0,9.5,0c0,2.4,0,4.6,0,7.4c1.7-1.7,3-2.9,4-4.3c1.4-1.8,3-1.6,4,0
	c1.9,2.8,3.4,5.8,5,8.7c0-3.5,0-7.5,0-11.4c2.3,2.3,4.5,4.7,5.9,7.6c1.4,2.9,1.9,6.2,2.9,9.9c0-3.3,0-6,0-9c1.5,0.7,2.7,1.2,4,1.8
	c0.1-0.1,0.3-0.2,0.4-0.3c-1.4-2.6-2.8-5.2-4.3-7.9c1.9-1.6,3.9-3.3,6.2-5.4c-3.5-0.7-6.4-1.4-9.5-2c0.5-3.1,0.9-5.9,1.3-8.8
	c-0.1,0-0.3-0.1-0.4-0.1c-2.3,2.9-4.5,5.8-6.8,8.7c-0.2-0.1-0.4-0.2-0.5-0.3c0-4.5,0-9.1,0-13.6c-0.1,0-0.3-0.1-0.4-0.1
	c-1.8,4-3.6,8.1-5.6,12.7c-2.1-5.5-3.9-10.5-5.8-15.5c-0.2,0-0.4,0.1-0.5,0.1c0,6.9,0,13.7,0,20.7c-3.2,0-6.2,0-9.5,0
	c0-7.1,0-14.1,0-21c-0.1,0-0.3,0-0.4-0.1c-1.9,5.1-3.8,10.2-5.9,15.7c-2-4.6-3.8-8.6-5.5-12.6c-0.2,0-0.3,0.1-0.5,0.1
	c0,2.3,0,4.5,0,6.8c0,2.3,0,4.6,0,6.9c-1.7-1.4-2.8-2.9-4-4.4c-1.1-1.5-2.3-2.9-3.4-4.4c-0.1,0.1-0.2,0.1-0.4,0.2
	c0.4,2.9,0.8,5.8,1.3,8.8c-3.3,0.7-6.2,1.3-9.5,2c2.4,2,4.4,3.8,6.2,5.4c-1.5,2.8-2.8,5.4-4.2,8c0.2,0.1,0.3,0.1,0.5,0.2
	c1.2-0.5,2.4-1.1,4-1.8c0,3.2,0,6,0,8.8c1.3-8.6,3.3-12.7,8.5-17c0,3.8,0,7.6,0,11.3c0.7-0.4,0.8-0.8,1-1.2c1.4-2.6,2.7-5.3,4.3-7.8
	c0.9-1.4,2.3-1.7,3.7,0C-176.9,166-175.4,167.2-174.1,168.6z M-171.6,158.6c2,0,3.7,0,5.4,0c0-9.6,0-18.9,0-28.4c-1.9,0-3.6,0-5.4,0
	C-171.6,139.7-171.6,149.1-171.6,158.6z M-180.1,150.1c2.5-6.9,4.9-13.3,7.4-20c-5.3,0.8-9.9,2-14.1,4.5
	C-184.6,139.7-182.5,144.6-180.1,150.1z M-157.7,150.1c2.4-5.5,4.5-10.4,6.9-15.9c-4.7-1.5-9.2-3-13.7-4.4c-0.1,0.2-0.3,0.5-0.4,0.7
	C-162.6,136.8-160.3,143.1-157.7,150.1z M-205.1,158.4c-1.6,8.4-1.1,16,2.3,23.2c-0.4-6.2,1-12,4.7-17.2
	C-200.4,162.5-202.6,160.6-205.1,158.4z M-139.7,164.4c3.6,5,4.8,10.5,4.9,16.4c3-7.1,3.6-14.3,1.9-22.2
	C-135.3,160.7-137.4,162.5-139.7,164.4z M-204.6,157.2c3.7-0.7,6.8-1.4,10.2-2.1c-0.7-4.2-1.4-8.3-2.1-12.8
	C-200.5,146.9-203.2,151.4-204.6,157.2z M-141.3,142.5c-0.7,4.6-1.4,8.6-2,12.7c3.4,0.7,6.5,1.3,9.9,1.9
	C-134.9,151.5-137.4,147.1-141.3,142.5z M-188,134.9c-2.9,2.3-5.3,4.2-7.8,6.3c2.6,3.4,5.1,6.6,7.8,10.2
	C-188,145.7-188,140.7-188,134.9z M-149.8,151.3c2.8-3.6,5.1-6.7,7.7-10c-2.5-2-4.9-3.9-7.7-6.2
	C-149.8,140.7-149.8,145.7-149.8,151.3z"/>
</svg>
