<?xml version="1.0" encoding="utf-8"?>
<!-- Generator: Adobe Illustrator 19.1.0, SVG Export Plug-In . SVG Version: 6.00 Build 0)  -->
<svg version="1.1" id="Layer_1" xmlns="http://www.w3.org/2000/svg" xmlns:xlink="http://www.w3.org/1999/xlink" x="0px" y="0px"
	 viewBox="-209 126 80 100" style="enable-background:new -209 126 80 100;" xml:space="preserve">
<style type="text/css">
	.st0{fill:none;}
	.st1{font-family:'Quicksand-Bold';}
	.st2{font-size:14px;}
</style>
<rect x="-412.2" y="336.2" class="st0" width="66.5" height="11.5"/>
<text transform="matrix(1 0 0 1 -203.2266 219.9998)" class="st1 st2">SIMMONS</text>
<path d="M-129,166.5c0,22-18,39.9-40,39.9c-22.2,0-40.1-18-40-40.4c0-22,18.1-39.7,40.4-39.7C-146.8,126.5-129,144.6-129,166.5z
	 M-205.7,162.9c-2.5,11.6,4.7,27,16.4,34.6c12.9,8.4,29.6,7.9,42-1c12.4-8.9,16.8-24.1,15-32.7c-2.5,1.7-5.2,3.4-7.8,5.1
	c0.7,0.3,1.7,0.6,2.6,1.1c2,0.9,2.9,2.4,2.6,4.6c-0.5,3.7-5.9,12.9-9.2,15.4c0.5-1,1-1.7,1.3-2.5c1.2-3.3,2.6-6.5,3.4-9.8
	c0.7-3.4-1.4-5.1-5-4.5c0.3,7-3.6,11.9-8.4,16.3c0.1-0.7,0.4-1.3,0.6-1.9c0.8-2.1,1.8-4.2,2.5-6.4c0.5-1.7,1-3.8-1.1-4.9
	c-2-1.1-3.8,0-5,1.5c-1.6,2-3.3,4.1-4.3,6.5c-2.4,5.4-4.4,11-6.5,16.6c-0.2,0.5-0.4,1-0.6,1.6c-0.1,0-0.2-0.1-0.3-0.1
	c0-13.7,0-27.3,0-41.2c1.6,1.9,2.9,3.6,4.4,5.2c2.1,2.2,4.6,1.7,7.1,0.7c2.2-0.9,2.8-2.8,2.7-5.1c-0.1-3.1-1.2-5.7-3.2-8
	c-1.3-1.4-2.7-2.6-4.1-3.9c0.1-0.2,0.2-0.4,0.4-0.6c2.2,1.3,4.6,2.3,6.5,3.9c1.9,1.7,3.1,4,4.8,6.2c0.3-4.6-0.8-8.7-3.6-12.3
	c-2.7-3.6-6.6-5.3-10.8-6.5c8,0.2,14.1,4,18.7,10.3c-2.5-9.3-8-15.9-17.3-19c-1.5-0.5-2.3-0.3-3,1.1c-1.1,2.3-2.4,4.4-3.6,6.6
	c-1.3-2.3-2.6-4.5-3.7-6.8c-0.7-1.4-1.5-1.5-2.9-1c-6.6,2.2-11.6,6.4-14.8,12.6c-1,1.9-1.7,4.1-2.5,6.1c6.1-6.9,14.9-11.6,18.8-9.7
	c-9.9,2.5-16.2,10.9-13.9,18.8c2.1-5.3,5.5-8.9,11.7-10.2c-1.4,1.2-2.3,2-3.2,2.9c-2.4,2.2-4,4.9-4.5,8.2c-0.4,3.2,0.4,5.2,2.6,6.3
	c3,1.5,5.4,1.2,7.6-1.2c1.3-1.4,2.4-3,3.8-4.7c0,13.9,0,27.6,0,41.2c-0.5-0.7-0.7-1.4-1-2.1c-2.8-6.5-5.4-13.1-8.4-19.6
	c-0.8-1.7-2.6-3.3-4.2-4.3c-2.2-1.4-4.4,0.1-4.3,2.7c0.1,1.7,0.6,3.4,1.2,5c0.7,2,1.7,3.8,2.5,5.8c-5-4.5-9.2-9.4-8.7-16.7
	c-3.8-0.4-5.5,1-5.1,4.4c0.3,2.4,1.2,4.7,2,7c0.7,1.8,1.7,3.5,2.5,5.3c-0.3,0.1-0.5,0.3-0.8,0.4c-2.3-4-4.9-7.9-6.9-12
	c-2.7-5.4-1.8-7.2,3.8-9.2c0.1,0,0.1-0.2,0,0C-200.1,167-202.9,164.9-205.7,162.9z M-197.6,161.3c-1.5-8.1-0.4-15.8,4.3-22.7
	c-4,3.4-7.2,7.4-9.3,12.2C-204.2,154.3-201.4,160.3-197.6,161.3z M-141.4,140.8c-0.3,0.1-0.6,0.3-0.9,0.4c3.3,6.4,4.1,13.1,2.7,20.2
	c3.6-1.3,6.4-6,5-8.8C-136.7,148.5-139.2,144.7-141.4,140.8z"/>
</svg>
