<?xml version="1.0" encoding="utf-8"?>
<!-- Generator: Adobe Illustrator 19.1.0, SVG Export Plug-In . SVG Version: 6.00 Build 0)  -->
<svg version="1.1" id="Layer_1" xmlns="http://www.w3.org/2000/svg" xmlns:xlink="http://www.w3.org/1999/xlink" x="0px" y="0px"
	 viewBox="-209 126 80 100" style="enable-background:new -209 126 80 100;" xml:space="preserve">
<style type="text/css">
	.st0{font-family:'Quicksand-Bold';}
	.st1{font-size:14px;}
</style>
<text transform="matrix(1 0 0 1 -199.2266 220.9998)" class="st0 st1">STANLEY</text>
<path d="M-129,167.4c0,22.2-17.9,40.2-40,40.1c-22-0.1-40-18.1-40-40.1c0-22,18-40,40-40C-146.8,127.3-129,145.1-129,167.4z
	 M-194.5,193.9c6.8,7.9,24.6,13.2,31.7,9.5c-1-0.6-1.8-1.1-2.7-1.6c-0.9-0.5-1.7-1-2.5-1.4c1.9-1.2,3.8-2.1,5.2-3.5
	c1.6-1.5,2.9-3.4,4.1-5.2c2.4-3.4,4.4-4,8-2.1c0.4,0.2,1.1,0.5,1.5,0.3c3.2-1.8,5.8-1,7.6,2.2c10.7-10.4,14.8-32.4,0.8-48.9
	c-10.5-12.3-33.3-17.4-42.6-9.5c0.6,0.7,1.4,1.3,1.9,2.1c3.4,5.5,8.1,6.5,14.1,5.1c5-1.2,10.1-1.3,15.6-2c-0.5,1.1-0.9,1.8-1.2,2.4
	c-3.1,5.5-6.1,11.1-9.3,16.6c-1,1.7-0.9,3.1-0.1,4.8c2.8,5.8,5.6,11.7,8.3,17.6c0.2,0.5,0.4,1.1,0.7,2c-7-1.4-13.7-2.6-20.4-4
	c-2.4-0.5-4.2-0.4-5.9,1.6c-1.3,1.6-3,2.8-4.5,4.2C-187.5,187.4-191,190.7-194.5,193.9z M-195.1,193.4c-0.9-7.8-1.8-15.1-2.7-22.4
	c0-0.4-0.2-0.9-0.5-1c-2.5-1.4-5-2.8-7.6-4.3C-206.7,175.2-202.1,187.1-195.1,193.4z M-201.8,149.7c5-1.6,5.3-2.1,5.5-7.6
	C-198.3,144.8-199.9,147-201.8,149.7z"/>
</svg>
