<?xml version="1.0" encoding="utf-8"?>
<!-- Generator: Adobe Illustrator 19.1.0, SVG Export Plug-In . SVG Version: 6.00 Build 0)  -->
<svg version="1.1" id="Layer_1" xmlns="http://www.w3.org/2000/svg" xmlns:xlink="http://www.w3.org/1999/xlink" x="0px" y="0px"
	 viewBox="-209 126.3 80 100" style="enable-background:new -209 126.3 80 100;" xml:space="preserve">
<style type="text/css">
	.st0{fill:none;}
	.st1{font-family:'Quicksand-Bold';}
	.st2{font-size:14px;}
</style>
<rect x="-203.2" y="210.2" class="st0" width="66.5" height="11.5"/>
<text transform="matrix(1 0 0 1 -187.2266 219.9998)" class="st1 st2">J.P.J.</text>
<path d="M-209,197.8c2.8-6.4,6.5-12,11.5-16.6c0.6-0.6,0.8-1.1,0.7-1.9c-1.1-9.8,2-18,9.2-24.6c2.8-2.6,6.2-4.5,9.8-5.8
	c0.3-0.1,0.7-0.5,0.8-0.9c1.7-6.1,4.6-11.5,8.5-16.5c0.1-0.1,0.1-0.2,0.3-0.5c1.8,3,3.6,5.7,5.1,8.6c1.4,2.7,2.4,5.6,3.6,8.4
	c0.2,0.4,0.5,0.8,0.9,0.9c10,3.9,16.3,11,18.6,21.6c0.6,3.1,0.7,6.2,0.2,9.2c-0.2,0.9,0.1,1.5,0.7,2.1c4.8,4.8,8.1,10.5,10.3,16.9
	c-0.1,0-0.1,0.1-0.1,0.1c-3.3,0.1-6.6,0.4-10,0.4c-3.4,0-6.8-0.6-10.1-1.6c-0.6-0.2-1-0.1-1.4,0.3c-10.6,8.2-25,8.1-35.7,0
	c-0.3-0.2-0.8-0.4-1.1-0.3c-6.5,1.8-13,2-19.6,0.5C-207.5,198-208.2,198-209,197.8z M-175.6,174.7c-4.3,0.5-12.8,4.2-15.9,7.2
	c-0.2,0.2-0.2,0.6-0.2,0.8c1.1,3.6,3,6.8,5.6,9.5c0.2,0.2,0.6,0.3,0.8,0.2c5.4-2.1,10-5.3,13.9-9.5c0.1-0.2,0.2-0.6,0.1-0.7
	C-172.7,179.7-174.1,177.2-175.6,174.7z M-165.2,182.6C-165.3,182.5-165.3,182.5-165.2,182.6c3.8,4.4,8.4,7.6,13.8,9.8
	c0.2,0.1,0.7,0,0.9-0.2c2.5-2.6,4.3-5.6,5.4-9c0.1-0.2,0-0.6-0.2-0.8c-4.5-3.6-9.5-6.1-15.1-7.4c-0.2,0-0.6,0.2-0.7,0.4
	C-162.6,177.7-163.9,180.1-165.2,182.6z M-192.6,177.2c4.8-3.3,10-5.6,15.7-6.7c-1.5-5.5-2.1-11-1.3-16.6
	C-186.9,157.4-193.5,167.2-192.6,177.2z M-172.5,169.8c2.7,0,5.5,0,8.2,0c0.2,0,0.5-0.3,0.6-0.5c1.6-5.4,2.1-10.8,0.9-16.4
	c-0.1-0.5-0.4-0.7-0.9-0.8c-2.9-0.6-5.9-0.5-8.8-0.1c-0.9,0.1-1.2,0.5-1.2,1.3c-0.1,2.9-0.4,5.8-0.3,8.7
	C-173.9,164.8-173.3,167.3-172.5,169.8z M-158.2,154c0.9,5.8,0.2,11.2-1.3,16.7c5.6,1.3,10.6,3.7,15.4,7.1c0.3-4.6-0.5-8.7-2.5-12.6
	C-149.1,160.1-152.9,156.5-158.2,154z M-154.9,195.7c-5.2-2.4-9.5-5.6-13.3-9.8c-3.9,4.2-8.4,7.4-13.6,9.8
	C-173.9,201.1-162.6,201-154.9,195.7z M-190.7,194c-1.7-2.9-3.3-5.7-4.9-8.5c-1.7,1.3-5.8,6.6-6.7,8.9
	C-198.4,195.2-194.5,194.8-190.7,194z M-141.3,186.1c-1.6,2.6-3.1,5.3-4.7,7.9c3.4,0.7,6.9,1.2,10.7,0.8
	C-137,191.5-139,188.6-141.3,186.1z M-168.3,139.1c-1.6,2.8-2.9,5.5-3.8,8.4c2.6,0,5.2,0,7.8,0c-0.3-0.7-0.5-1.3-0.8-2
	C-166.2,143.5-167.2,141.4-168.3,139.1z M-165.5,174.1c-1.9,0-3.6,0-5.4,0c0.9,1.6,1.7,3.1,2.7,4.8
	C-167.2,177.2-166.4,175.8-165.5,174.1z"/>
</svg>
