<?xml version="1.0" encoding="utf-8"?>
<!-- Generator: Adobe Illustrator 19.1.0, SVG Export Plug-In . SVG Version: 6.00 Build 0)  -->
<svg version="1.1" id="Layer_1" xmlns="http://www.w3.org/2000/svg" xmlns:xlink="http://www.w3.org/1999/xlink" x="0px" y="0px"
	 viewBox="-208 118.7 82.2 115.3" style="enable-background:new -208 118.7 82.2 115.3;" xml:space="preserve">
<style type="text/css">
	.st0{fill:none;}
	.st1{font-family:'Quicksand-Bold';}
	.st2{font-size:12px;}
</style>
<g id="george_1_">
	<g>
		<path d="M-166.9,155.4c0.9,3.6,1.7,6.6,2.4,9.5c-0.2,0.1-0.3,0.2-0.5,0.3c-0.8-1.3-1.6-2.6-2.2-3.9c-0.7-1.5-1.2-3-1.8-4.5
			c-0.3,0.1-0.6,0.2-0.8,0.2c1.1,3.8,2.2,7.6,3.3,11.4c-3.8-1.4-4.4-5.4-6.7-8.8c-0.4,2-0.8,3.7-1.3,5.7c-0.9-1-1.5-1.7-2.1-2.4
			c-1.1,1.5-0.7,2.3,0.8,3.1c1.5,0.8,3,1.8,4.8,2.8c-2.8,2.4-5.3,1.2-7.5,0.6c-2.6-0.8-5.1-1.4-7.6,0.2c-0.7,0.4-1.8,0.2-2.6,0.2
			c-1.2,0-2.9-0.6-3.4-0.1c-1.7,1.8-4.1,3.3-3.6,6.4c0.4,3,0.7,6.1,1,9.7c-0.8-1.3-1.2-1.9-1.6-2.6c-1.6-2.9-3.9-5-6.6-6.9
			c-0.7-0.4-0.5-2.1-1.2-2.4c-5.9-3.2-3.6-8.1-3-12.8c0.3-2.1,0.3-4.3-0.1-6.4c-0.5-2.9-0.1-5.6,1.6-7.8c4-5.3,7.5-11,10.1-17.2
			c1.6-3.8,4.8-6.2,8.6-7.7c2.6-1,5.3-2,7.9-3s5.2-0.9,7.7,0.6c0.6,0.4,1.7,0.7,2.2,0.4c6.9-3.2,12.8-0.1,18.7,2.8
			c2.4,1.2,4.6,2.6,6.8,4.1c1.5,1,3,2.1,4.1,3.5c1.4,1.7,2.5,3.6,3.7,5.4c3.1,5,3.1,5,8.9,4.7c-0.9,0.9-1.4,1.7-2.1,2.3
			c-0.7,0.6-1.5,0.9-2.3,1.3c1.9,4,3.6,7.9,5.4,11.8c-2.4,2.1-1.5,5.3-1.6,8.3c0,1.5,0.3,3,0.5,4.9c-1-0.5-1.6-0.8-2.4-1.2
			c-0.7,3-4.3,4.5-3.6,7.9c-3,1.3-2.8,6.1-7,6.3c-0.8,0.1-1.5,1.2-2.8,1.9c3.1-6.5-0.4-11.9-2-17.6c-0.3,0.1-0.6,0.1-0.8,0.1
			c0.3,1.5,0.6,3,0.8,4.5c-3.9-5-9.1-2.3-13.7-2.8c-1.6-0.2-3.2-0.1-5.2-0.1c1.5-3.5,4.3-2.9,7-3.6c-2-2.8-3.9-5.3-5.8-7.8
			c-0.3,0.2-0.6,0.4-0.9,0.7c1.6,2.2,3.2,4.4,4.8,6.7c-0.2,0.2-0.4,0.3-0.7,0.6C-161.6,161.9-164,158.9-166.9,155.4z"/>
		<path d="M-185,211.7c3-0.4,6.1-0.8,9-1.3c5.2-0.9,5.3-1.2,2.2-6.1c2.3,0.2,4,0.4,5.8,0.4s3.6-0.3,5.5-0.4c0.8,2.6-2.2,2.8-3,4.8
			c3,1.2,6,2.5,9.1,3.6c0.5,0.2,1.4-1,2.1-1.6c1-0.9,2-1.8,3.2-2.8c-0.3,5.6-7.5,13.7-12.2,14.1C-176.7,223.7-182.7,219.9-185,211.7
			z"/>
		<path d="M-129.3,186.7c-0.6,1.7,1.7,3.5-0.2,5.4c-0.4,0.4-0.9,1.2-1.1,1c-2.1-0.7-3.1,0.6-3.3,2.1c-0.1,0.8,1.3,1.8,2.3,3.1
			c-0.6,0.7-1.5,1.6-2.5,2.7c0.7,0.3,1.3,0.6,1.3,0.6c-1.1,1.6-2,3.3-3.3,4.7c-0.9,1-2.3,1.7-3.5,2.4c-0.2-0.2-0.4-0.4-0.6-0.7
			c0,0.6,0,1.2,0,1.7c-0.2,0-0.5,0-0.5,0c-4.2-6.3-5.7-12.9-3.1-19.2c1.9-1,3.2-1.6,4.5-2.3c0.4-0.2,0.8-0.8,1.3-0.8
			C-135.1,187.1-132.3,186.9-129.3,186.7z"/>
		<path d="M-183.5,207.7c-1.5-7.4,0-10.2,7-13.8c4.6-2.3,6.6-2.5,8.4-0.2c3.8-3.5,8.3-1.7,14.2,2.5c2.4,1.7,3.9,6.3,1.6,11
			c-2.6-0.8-3.9-2.9-4.6-5.3c-0.6-2-1.7-2.9-3.8-3.2c-2.4-0.3-4.7-1.3-7.3-2c-2,0.7-4.5,1.7-7.2,2.2c-2.4,0.4-3.9,1.5-5,3.7
			C-181,204.3-182.3,205.9-183.5,207.7z"/>
		<path d="M-193.5,192c0.8,3.6,3.8,7.4,1.2,12.3c-0.3-0.9-0.6-1.4-0.8-2.2c-1,0.3-2.1,0.6-3.3,1c0.2-0.8,0.3-1.4,0.5-2.2
			c-1,0.1-1.9,0.1-2.8,0.2c-0.5-2.2,1.9-4.9-1.4-6.2C-199.2,191.4-196.9,190.9-193.5,192z"/>
	</g>
</g>
<rect x="-193.7" y="224.6" class="st0" width="54" height="11.3"/>
<text transform="matrix(1 0 0 1 -193.7 233.0504)" class="st1 st2">GEORGE</text>
</svg>
