<?xml version="1.0" encoding="utf-8"?>
<!-- Generator: Adobe Illustrator 19.1.0, SVG Export Plug-In . SVG Version: 6.00 Build 0)  -->
<svg version="1.1" id="Layer_1" xmlns="http://www.w3.org/2000/svg" xmlns:xlink="http://www.w3.org/1999/xlink" x="0px" y="0px"
	 viewBox="-209 118.7 80 115.3" style="enable-background:new -209 118.7 80 115.3;" xml:space="preserve">
<style type="text/css">
	.st0{fill:none;}
	.st1{font-family:'Quicksand-Bold';}
	.st2{font-size:12px;}
</style>
<g id="john_1_">
	<path d="M-138.2,194.9c0-3.4,0-6.3,0-9.1c-0.3-0.1-0.6-0.1-0.8-0.2c-0.5,2-1.2,4-1.4,6c-0.3,4-0.3,8.1-0.6,12.1
		c-0.3,4.4-3.5,6.9-6.1,9.8c-0.2-0.1-0.5-0.3-0.7-0.4c0.3-0.5,0.5-1.1,0.8-1.6c2.7-3.9,3.2-8.3,3.7-12.9c0.6-4.9,1.4-9.8,1.8-14.8
		c0.1-1.6-0.7-3.3-1.4-5c-1.3,3.7-5.2,5.1-7,8.4c-2,3.6-6.8,4.1-10.6,2.2c-3.9-1.9-5.4-5.3-4.4-10.7c-2.8-0.1-5.6-0.3-8.4-0.4
		c-0.3,6.7-1.9,9.2-6.5,10.7c-3.6,1.1-8.1,0.1-9.6-3.2c-1.5-3.2-4.7-4-7-6.5c0,2.1-0.2,4.2,0.1,6.2c0.6,5.5,1.5,11,2,16.5
		c0.2,2.7,0.5,5.2,2.2,7.4c0.4,0.5,0.6,1.2,1.1,2.5c-4-1.9-5.6-4.8-5.9-8.2c-0.5-4-0.3-8.1-0.7-12.1c-0.1-1.1-0.8-2.3-1.5-3.2
		c-0.6-0.8-1.6-1.4-2.4-1.9c-5.9-4.1-6.7-10.6-7.3-17c-0.8-8.3,0.4-16.2,4.2-23.6c0.5-0.8,0.7-2,0.5-2.9c-1.9-9,4.8-19.9,14-21.4
		c4.5-0.7,9.1-0.1,13.7,0c0.7,0,1.4,0.2,2.1,0.1c5.5-1,10.9-2,16.3-2.9c0.6-0.1,1.4-0.2,2,0.1c6.6,3.5,15,4.2,18.8,12.2
		c1.1,2.3,3.9,3.9,5.4,6.1c1,1.5,3.1,2.8,1.4,5.5c-0.7,1.1,0.8,3.6,1.4,5.8c-1,0.1-1.6,0.1-2.4,0.1c0.8,4.3,1.6,8.6,2.3,11.7
		c-0.9,2.2-2.4,4-1.9,4.9c1.5,3.3-0.3,6.1-0.9,9c-0.6,2.8-1.8,5.6-2.4,8.3c-0.5,1.9-0.8,4.1-0.5,6
		C-134.5,191.4-135.3,193.2-138.2,194.9z M-177.5,173.8c0.8,1,1.5,1.9,2.4,2.5c0.7,0.6,1.6,1,2.5,1.1c1.8,0.2,3.5,0.2,5.3,0.1
		c1.3-0.1,2.9,0,3.8-0.8c6-5.4,12.6-3.9,15.6,3.7c0.2,0.5,0.7,1,1.2,1.2c0.3,0.1,1-0.5,1.1-0.8c0.8-2.4,1.8-4.9,2.1-7.4
		c0.3-2.6,0.1-5.3,0.1-7.9c-0.3-0.1-0.6-0.2-0.9-0.2c-0.7,0.9-1.4,1.8-2.3,2.9c-5.5,0.3-8.1-4-10.6-8.4c-6.5,6.8-9.3,8.2-13.6,6.9
		c1-1.5,2-3.1,3.1-4.6c-3.9,2.3-7.5,4.5-11,6.6c0.4,0.3,1.1,0.8,1.8,1.4C-174.7,171.7-174.9,173.2-177.5,173.8z M-182.6,188.4
		c4.4,0.1,8.1-3.3,8.2-7.3c0.1-3.6-3.8-7.4-7.5-7.4c-4.4,0-8.2,3.3-8.3,7.3C-190.3,184.9-186.8,188.3-182.6,188.4z M-156.4,174.8
		c-4.5-0.1-7.8,2.9-7.9,7c-0.1,4.2,3.3,7.6,7.6,7.7c4.2,0.1,7.7-3.3,7.8-7.3C-148.8,178-152,174.9-156.4,174.8z M-183.1,172.7
		c-4.4-1.8-6.9,1.1-9.9,2.3c-0.3-4.1,3-4.9,5.7-6.5c-3.2-1.8-5.3,0.7-7.8,0.9c-0.3,2-0.5,3.7-0.8,5.6c-0.4,2.5,1,4.1,2.7,5.6
		c0.3,0.3,1.9-0.2,2-0.5C-190.3,175.9-187.8,173.5-183.1,172.7z"/>
	<path d="M-182.5,218.6c-2.8-4-1.1-12,2.7-13.3c3.7-1.3,7-3.6,11.3-3.7c6.4-0.1,13.1,4.2,14.3,10.4c0.3,1.6,0.7,3.3,0.5,5
		c-0.1,0.8-1.4,1.5-2.2,2.3c-0.6-0.7-1.1-1.5-1.6-2.3c-0.1-0.2-0.1-0.6-0.1-0.8c-0.7-6.5-2.1-7.6-8.6-8.4c-4.2-0.5-8,0.3-11.8,1.7
		c-2.5,0.9-3.5,3-3.9,5.4C-182,215.9-182.2,216.9-182.5,218.6z"/>
	<path d="M-165.9,172c3.8-5.4,15.7-4.6,20.3,1.9c-3.2-0.3-5.9-0.8-8.6-0.9c-2.4-0.1-4.9,0-7.1,0.7
		C-163.7,174.5-164.8,173.9-165.9,172z"/>
</g>
<rect x="-188" y="223.7" class="st0" width="41.6" height="11.3"/>
<text transform="matrix(1 0 0 1 -188 232.1004)" class="st1 st2">JOHN</text>
</svg>
