<?xml version="1.0" encoding="utf-8"?>
<!-- Generator: Adobe Illustrator 19.1.0, SVG Export Plug-In . SVG Version: 6.00 Build 0)  -->
<svg version="1.1" id="Layer_1" xmlns="http://www.w3.org/2000/svg" xmlns:xlink="http://www.w3.org/1999/xlink" x="0px" y="0px"
	 viewBox="-209 118.7 80 115.3" style="enable-background:new -209 118.7 80 115.3;" xml:space="preserve">
<style type="text/css">
	.st0{fill:none;}
	.st1{font-family:'Quicksand-Bold';}
	.st2{font-size:12px;}
</style>
<g id="paul_1_">
	<path d="M-130.9,187.7c-2.1-2.6-3-0.8-3.8,0.5c-1.2,2-2.1,4.1-3.3,6.1c-0.8,1.6-1.8,3-2.8,4.7c0.8,0.4,1.5,0.8,2.5,1.4
		c-1.2,1.3-2.4,2.5-4.1,4.4c0.7-4.9,1.7-9,1.7-13c0.1-6.1-0.1-12.4-0.9-18.4c-0.3-2.2-2.4-4.3-3.9-6.2c-0.6-0.7-2.1-0.8-3.3-1.1
		c-0.7-0.2-1.5,0.1-2.3,0c-4.2-0.5-8.3-1.1-12.7-1c1.9,0.8,3.7,1.6,5.5,2.3c-7.1,0.1-13.5-1.3-17.9-7.7c-0.6,3,1.4,4.5,3.3,5.8
		c-4.5-1.1-5.8-3.3-4.9-8.3c-3,1.4-5.8,2.9-5.4,6.3c-3.3,1.5-6.6,2.5-9.2,4.5c-5.2,3.8-5.3,9.6-5,15.3c0.2,4,0.6,8,0.9,12
		c-0.3,0.1-0.6,0.2-0.8,0.3c-1.6-3.8-3.3-7.6-5-11.4c-0.2-0.4-0.4-0.9-0.8-1.1c-5.4-2.8-5.4-8.2-5.8-12.9c-0.5-5.8,0.5-11.7,1-17.7
		c0.1-1.2,0.5-2.4,1-3.5c1.2-3.2,2.4-6.4,3.8-9.5c0.6-1.2,1.6-2.3,2.5-3.3c2.1-2.4,4.7-4.5,6.5-7.2c2.1-3,4.6-4.3,8.3-4.2
		c1.6,0.1,3.3-0.4,4.7-1.1c2.9-1.4,5.5-2.8,8.6-0.5c0.6,0.5,1.8,0.1,2.7,0.1c5.8,0.3,11.6,0.3,17.3,1.2c2.7,0.5,5.2,2.6,7.6,4.3
		c2.4,1.8,4.4,4,6.5,6.1c4.2,4.1,6.3,9,6.2,14.8c-0.1,3.2,0.5,6,2,8.9c1.9,3.4,2.7,7.2,1.9,11.3c-0.7,3.9-0.3,8.1-0.8,12
		C-129.2,183.8-130.1,185.5-130.9,187.7z"/>
	<path d="M-155.8,213.6c-1-1-1.7-1.8-2.5-2.3c-1.8-1-3.7-2.1-5.7-2.4c-4.2-0.6-6.9-2.7-6.7-5.8c0.2-1.9,0.8-2.8,2.9-1.9
		c2.4,1.1,4.8,2,7.3,2.9C-155.5,205.8-154.3,207.9-155.8,213.6z"/>
	<path d="M-185,212.7c-1.2-1.5-0.7-3.9,0.8-5.2c3.3-2.5,6.9-4.6,10.6-6.5c1.3-0.7,2.9,1.6,2.1,3.2c-0.7,1.4-1.9,2.9-3.2,3.7
		C-177.7,209.7-181.2,211-185,212.7z"/>
	<path d="M-179.2,175.6c-2.2-1-4.3-2.1-6.6-3c-3.9-1.7-4.3-1.6-6.6,1.9c-0.5,0.8-1.2,1.5-2,2.4c-0.6-3.6,0.7-6.3,3.3-7.7
		c3.6-1.9,7.7-0.7,12,3.5c0.6,0.6,0.6,1.6,0.8,2.5C-178.5,175.3-178.8,175.5-179.2,175.6z"/>
	<path d="M-165.3,174.8c0.9-0.5,1.7-1.4,2.7-1.5c3.7-0.5,7.4-1.1,11.1-1.1c3.8,0.1,6.8,3.6,6.8,7.6c-0.8-0.6-1.6-0.9-2.1-1.5
		c-3.5-4-7.8-4.2-12.6-3.2c-1.8,0.5-3.8,0.4-5.6,0.6C-165.2,175.4-165.3,175.1-165.3,174.8z"/>
	<path d="M-201.4,195.8c1.5,0.7,3.2,1.5,4.9,2.3c0.2-0.3,0.4-0.6,0.6-0.8c0.7,2.3,1.4,4.5,2.1,6.8
		C-197.4,202.7-200.1,199.6-201.4,195.8z"/>
</g>
<rect x="-189.8" y="221" class="st0" width="41.6" height="11.3"/>
<text transform="matrix(1 0 0 1 -184.6359 229.4337)" class="st1 st2">PAUL</text>
</svg>
