<?xml version="1.0" encoding="utf-8"?>
<!-- Generator: Adobe Illustrator 19.1.0, SVG Export Plug-In . SVG Version: 6.00 Build 0)  -->
<svg version="1.1" id="Layer_1" xmlns="http://www.w3.org/2000/svg" xmlns:xlink="http://www.w3.org/1999/xlink" x="0px" y="0px"
	 viewBox="-208 118.7 82.2 115.3" style="enable-background:new -208 118.7 82.2 115.3;" xml:space="preserve">
<style type="text/css">
	.st0{fill:none;}
	.st1{font-family:'Quicksand-Bold';}
	.st2{font-size:12px;}
</style>
<g id="ringo">
	<path d="M-136.7,196.6c3.3,3,3.8,5.1-0.8,7.2c-1.2,0.6-2.6,0.7-4,1.1c-0.2-0.6-0.6-1-0.6-1.4c0.8-4.1,1-8.5,2.6-12.3
		c2.3-6,3.8-11.7,1.3-17.7c-3.4-1-6.7-2-10.1-2.9c-2-0.5-4.2-0.5-6.2-0.8c-0.6-0.1-1-0.5-1.6-0.8c0.4-0.6,0.7-1.4,1.2-1.5
		c4.6-0.9,3.7-5.1,5.6-8.1c-3.8,2.9-7.2,5.6-10.7,8c-0.9,0.7-2.4,0.6-3.6,0.7c-0.8,0-1.7-0.7-2.4-0.6c-2.2,0.6-3.1-0.1-2.8-2.6
		c-3.5,0-6.7-0.1-10.1,0.1c-0.7,0-1.3,0.5-1.9,0.9c-1.8,1.2-3.5,1.5-4.8,0.4c-1.9,0.6-3.5,1-5.1,1.6c-0.6,0.2-1.2,0.8-1.6,1.4
		c-3.1,5.2-3.8,10.5-0.4,16c1.2,2,1.9,4.4,2.5,6.6c1.2,4.6,2.2,9.2,3.2,13.9c-3.8,1.5-10-2.3-10.3-6.6c-0.1-0.4,0.1-1.2,0.3-1.3
		c1.6-0.6,2.9-1.4,2.5-3.3c-0.6-2.5-0.9-5.1-2.3-7.2c-1.6-2.5-4-4.6-6.1-6.6c-3-2.9-4.1-6.4-4.5-10.3c-0.6-6.5-1-12.9,1.9-18.9
		c1.2-2.5,2.5-4.9,3.7-7.3c0.8-1.8,1.7-3.6,2.2-5.5c1.3-5.1,4.8-8.1,9.5-9.9c4.8-1.9,9.7-3.3,14.3-5.6c5-2.5,9.7-3,15.1-1.5
		c5.1,1.4,10.4,2.1,15.2,4.6c3.2,1.7,6,3.6,7.8,6.7c0.7,1.2,1.6,2.2,2.5,3.2c2.1,2.2,2.9,4.8,3.5,7.8c0.6,3.4,2.4,6.5,3.7,9.7
		c3.1,7.3,2.8,14.9,1.3,22.5c-0.4,2.2-2.3,4-3.6,6c-1.1,1.7-2.5,3.3-3.3,5.1C-134.6,190.2-135.6,193.4-136.7,196.6z M-148,163.1
		c-1.2,1.4-2,2.5-3.3,3.9c1.4,0,2.3,0,3.3,0C-148,165.8-148,164.7-148,163.1z M-138.9,170.3c-1.1-2.3-3.5-3-5.5-1.6
		C-142.6,169.2-140.7,169.8-138.9,170.3z"/>
	<path d="M-148.8,209.2c-0.6-1-1.4-1.9-1.8-3c-1.3-3.6-4-5.3-7.7-5.7c-2.6-0.3-3.9-3.1-2.2-5.1c0.4-0.5,1.7-0.6,2.4-0.3
		c2.4,0.8,4.8,1.7,7.2,2.6c2.3,0.9,3.6,2.4,3.5,5c-0.1,2-0.2,4.1-0.3,6.2C-148,209-148.4,209.1-148.8,209.2z"/>
	<path d="M-179.8,207.4c0.4-2.8,0.7-5.7,1.5-8.5c0.3-1,2-1.8,3.2-2.2c2.2-0.8,4.5-1.3,6.8-1.8c0.9-0.2,2.4-0.2,2.7,0.3
		c0.6,0.9,0.8,2.3,0.5,3.3c-0.2,0.7-1.5,1.4-2.3,1.4c-4.4,0-7.5,1.9-9.4,5.8c-0.4,0.9-0.9,1.8-1.3,2.7
		C-178.6,208.2-179.2,207.8-179.8,207.4z"/>
	<path d="M-168.4,171.2c-3.3,0-6.7,0.1-10-0.1c-3.1-0.2-5.7,0.7-8.1,2.7c-0.9,0.7-2.4,0.6-3.6,0.9c0.6-1.1,1-2.5,1.9-3.3
		c5.3-4.3,11.4-3.6,17.6-2.8c0.9,0.1,1.7,0.9,2.5,1.4C-168.3,170.4-168.4,170.8-168.4,171.2z"/>
	<path d="M-198.7,195.8c-2.8,1.5-5,3.1-8,2c-1.6-0.6-1.8-2.9-0.4-3.9c1.7-1.2,3.3-2.2,5.3-3.5C-200.8,192-199.9,193.7-198.7,195.8z"
		/>
</g>
<rect x="-187" y="218.7" class="st0" width="41.6" height="11.3"/>
<text transform="matrix(1 0 0 1 -187 227.1004)" class="st1 st2">RINGO</text>
</svg>
