<?xml version="1.0" encoding="utf-8"?>
<!-- Generator: Adobe Illustrator 19.1.0, SVG Export Plug-In . SVG Version: 6.00 Build 0)  -->
<svg version="1.1" id="Layer_1" xmlns="http://www.w3.org/2000/svg" xmlns:xlink="http://www.w3.org/1999/xlink" x="0px" y="0px"
	 viewBox="-206.9 126.3 80 100" style="enable-background:new -206.9 126.3 80 100;" xml:space="preserve">
<style type="text/css">
	.st0{fill:none;}
	.st1{font-family:'Quicksand-Bold';}
	.st2{font-size:14px;}
</style>
<path d="M-167,196.4c-2.9,2.7-6.1,4.7-9.9,5.8c-11.9,3.4-24.6-3.3-28.7-15.1c-4.2-12.3,1.7-25.7,13.4-30.5c0.5-0.2,0.6-0.5,0.6-1
	c0.7-10.4,8.2-19.3,18.3-21.6c11.7-2.7,23.6,4,27.5,15.4c0.6,1.8,0.9,3.7,1.3,5.6c0.1,0.6,0.4,0.8,0.8,0.9c8.9,3,14.3,9.2,16.2,18.3
	c2.8,12.9-5.6,25.8-18.4,28.5c-7.8,1.6-14.6-0.5-20.5-5.7c-0.1-0.1-0.3-0.2-0.4-0.4C-166.8,196.4-166.9,196.4-167,196.4z
	 M-144.5,160.8c0,0.2-0.1,0.4-0.1,0.6c-1.6,8.6-6.3,14.8-14.3,18.4c-0.5,0.2-0.7,0.6-0.8,1.1c-0.4,2-0.6,4-1.3,6
	c-0.7,2-1.7,3.9-2.6,5.9c4.9,5.1,13.1,7.1,20.4,3.9c7.8-3.5,12.3-11.4,11.3-20.2C-132.9,167.9-139.3,162.3-144.5,160.8z
	 M-170.1,192.5c0-0.1-0.1-0.2-0.1-0.3c-2.1-3.3-3.4-6.9-3.8-10.8c0-0.5-0.3-0.7-0.8-0.9c-7.8-2.6-12.9-7.8-15.6-15.5
	c-0.4-1.1-0.6-2.3-0.9-3.4c-4.8,2-10.7,8.2-10.8,17c-0.1,8.4,4.9,15.7,12.6,18.4C-182,199.7-174.4,197.2-170.1,192.5z M-149.4,154.8
	c-0.6-7.3-7.3-16.3-18.2-16.6c-10.5-0.2-18.1,8.2-18.9,16.7c7.6-0.9,14.1,1.3,19.6,6.5C-162,156.8-156.2,154.6-149.4,154.8z
	 M-186.6,160c0.9,7.9,6.9,14,12.6,15.6c0.5-3.7,1.8-7.2,3.9-10.3C-174.7,160.8-180.2,159-186.6,160z M-160,174.8
	c6-2.6,10.3-9.4,10.6-15c-4.9-0.6-11.2,1.8-14.4,5.5C-161.8,168.2-160.6,171.4-160,174.8z M-164.6,176.5c-0.4-2.6-1-4.8-2.3-7
	c-1.3,2.3-2,4.6-2.3,7.2C-167.7,176.6-166.2,176.5-164.6,176.5z M-164.7,181.4c-1.6,0.1-3,0.2-4.5,0.3c0.3,2.4,1,4.6,2.2,6.7
	C-165.7,186.1-164.9,183.9-164.7,181.4z"/>
<rect x="-200.1" y="212.2" class="st0" width="66.5" height="11.5"/>
<text transform="matrix(1 0 0 1 -193.0235 221.9998)" class="st1 st2">BONZO</text>
</svg>
