<?xml version="1.0" encoding="utf-8"?>
<!-- Generator: Adobe Illustrator 19.1.0, SVG Export Plug-In . SVG Version: 6.00 Build 0)  -->
<svg version="1.1" id="Layer_1" xmlns="http://www.w3.org/2000/svg" xmlns:xlink="http://www.w3.org/1999/xlink" x="0px" y="0px"
	 viewBox="-206.9 126.3 80 100" style="enable-background:new -206.9 126.3 80 100;" xml:space="preserve">
<style type="text/css">
	.st0{fill:none;}
	.st1{font-family:'Quicksand-Bold';}
	.st2{font-size:14px;}
</style>
<rect x="-200.4" y="211.2" class="st0" width="66.5" height="11.5"/>
<text transform="matrix(1 0 0 1 -189.6266 220.9998)" class="st1 st2">PLANT</text>
<path d="M-206.9,167.3c0-22.1,18-40,40.1-39.9c22.1,0.1,40,18.1,39.9,40c-0.1,22.1-18.1,40-40.2,39.9
	C-189.1,207.2-206.9,189.2-206.9,167.3z M-166.9,199.1c17.5,0,31.8-14.2,31.8-31.8c0-17.6-14.2-31.8-31.8-31.8
	c-17.6,0-31.8,14.2-31.8,31.8C-198.7,184.9-184.5,199.1-166.9,199.1z"/>
<path d="M-173.2,196.3c2-0.2,2.1-0.3,2.2-2.3c0-1.1,0-2.2,0-3.2c0-0.3-0.3-0.7-0.5-0.8c-2.3-0.7-3.7-2.4-4.3-4.6
	c-0.6-2.3-1-4.7-1.1-7.1c-0.3-9-0.4-17.9-0.5-26.9c-0.1-6.9,3.8-11.6,10.6-12.9c2.1-0.4,4.1,0,6.1,0.8c2.3,1,4.3,2.5,6,4.4
	c0.5,0.6,1,1.2,1.3,1.9c0.6,1.3,0.4,1.6-1,1.8c-3.7,0.6-6.4,3.5-7,7.4c-0.8,4.9-0.6,9.8-0.6,14.7c0,4.2,0,8.4-0.3,12.6
	c-0.1,2.3-0.8,4.5-2.6,6.2c-0.7,0.6-1.5,1.1-2.3,1.5c-0.6,0.3-0.8,0.6-0.8,1.2c0,1.2,0.1,2.5-0.1,3.7c-0.1,0.8-0.5,1.6-1.1,2.2
	C-170.6,198.2-172.1,198-173.2,196.3z M-171.4,164.2c0.1-1.7,0.3-3.2-1-4.4c-0.9-0.8-1.6-1.8-2.4-2.7c-0.1-0.1-0.1-0.2-0.1-0.3
	c0.2-0.2,0.4-0.4,0.7-0.6c0.9,1,1.8,2,2.9,3.2c0-0.9,0-1.5,0-2.1c0.1-1.1-0.2-1.9-0.9-2.7c-0.9-0.9-1.6-2-2.5-3
	c0.2-0.3,0.4-0.5,0.7-0.8c0.9,1.1,1.7,2.1,2.6,3.1c0.8-2.8-0.8-4.8-1.6-7.2c0.2-0.2,0.5-0.4,0.8-0.8c0.6,1.4,1.1,2.7,1.7,3.9
	c1.5-1.5,1.5-1.5,1.5-3.3c0-0.5,0-1.1-0.1-1.6c-0.1-0.7,0.2-1.1,0.9-1.5c0.1,1.3,0.2,2.4,0.3,3.5c1.7-0.7,2.5-2,3.1-3.6
	c0.2-0.6,0.7-1.1,1.1-1.6c0.2,0.1,0.3,0.1,0.5,0.2c-0.3,1-0.7,2-1,3c1.7-0.5,3.4-0.8,5-1.3c0.7-0.2,1.1-0.1,1.4,0.6
	c-0.9,0.3-1.7,0.5-2.5,0.9c-0.7,0.4-1.4,0.9-2.1,1.3c0.7,0,1.4-0.2,2-0.4c1.1-0.4,1.1-0.4,1.7,0.5c-1.6,0.6-3.2,1.1-4.8,1.8
	c-0.7,0.3-1.2,0.8-1.8,1.2c0.1,0.1,0.1,0.2,0.2,0.3c0.9-0.4,1.9-0.7,2.8-1.1c0.7-0.3,1.1-0.1,1.4,0.6c-1.5,0.6-3,1.3-4.6,1.9
	c-1.8,0.7-2.4,1.5-2,4.3c1.6-1.5,3.1-2.9,4.7-4.3c0.3,0.3,0.5,0.4,0.8,0.7c-1.8,1.6-3.4,3.1-5.1,4.7c-0.3,0.3-0.7,0.7-0.7,1
	c-0.1,1,0,2,0,3c1.4-1.3,2.8-2.6,4.3-3.9c0.1,0.2,0.3,0.4,0.6,0.6c-1.2,1.3-2.3,2.6-3.6,3.7c-1.5,1.2-1.4,2.7-1.2,4.4
	c1.2-1.2,2.3-2.3,3.5-3.6c0.3,0.3,0.6,0.5,1,1c-1.2,1.1-2.3,2.2-3.5,3.1c-1.4,1.1-1.2,2.4-1.1,3.8c1.4-1.3,2.8-2.5,4.2-3.9
	c0.2,0.2,0.4,0.4,0.6,0.7c-1.2,1.2-2.2,2.6-3.5,3.6c-1.6,1.3-1.4,2.8-1.3,4.7c1.4-1.6,2.7-3.1,4-4.7c0.3,0.3,0.5,0.5,0.7,0.8
	c-1.5,1.7-2.9,3.4-4.3,5c-0.2,0.2-0.4,0.5-0.5,0.8c-0.1,1,0,2,0,3.3c1.5-1.7,2.8-3.2,4.1-4.8c0.3,0.3,0.5,0.6,0.7,0.8
	c-1.2,1.5-2.3,3-3.7,4.2c-1.4,1.2-1.1,2.6-1,4.3c1.4-1.6,2.6-3,3.9-4.4c0.3,0.3,0.5,0.5,0.7,0.8c-1.2,1.4-2.3,2.9-3.6,4.1
	c-1.2,1.1-1,2.4-0.9,3.9c1.1-0.4,2.1-0.8,2.7-1.8c0.7-1.3,1.6-2.7,1.7-4.1c0.4-3.4,0.4-6.9,0.5-10.4c0.1-5.7-0.4-11.4,0.4-17
	c0.3-2.7,1.2-5.1,3.3-6.9c1.4-1.3,3.1-1.9,5.1-2.4c-0.3-0.5-0.5-1-0.9-1.4c-2-2.4-4.4-4.2-7.4-5.1c-1.1-0.3-2.3-0.5-3.5-0.3
	c-6.2,0.7-10.4,5.2-10.3,11.5c0.1,9.7,0.3,19.4,0.6,29c0.1,2.5,0.5,5,2,7.2c0.7,0.9,1.5,1.6,2.7,1.9c0-0.8-0.1-1.5,0-2.2
	c0.1-1.1-0.3-1.8-1-2.6c-1.1-1.1-2.1-2.4-3.2-3.6c0.3-0.3,0.5-0.5,0.8-0.7c1.1,1.2,2.1,2.4,3.3,3.7c0.1-1.8,0.2-3.2-1.1-4.4
	c-1.1-1-2-2.3-3-3.5c0.3-0.3,0.5-0.5,0.8-0.7c1.1,1.3,2.2,2.5,3.4,3.9c0-0.9-0.1-1.4,0-2c0.1-1.1-0.3-1.9-1-2.7
	c-1.1-1.2-2.1-2.4-3.2-3.7c0.3-0.3,0.5-0.5,0.7-0.8c1.2,1.3,2.2,2.5,3.5,4c0-0.7,0-1.2,0-1.6c0.2-1.2-0.3-2.1-1.2-2.9
	c-1-0.9-2-2-2.9-3c0.2-0.3,0.4-0.6,0.5-0.9c1.3,1.2,2.4,2.2,3.5,3.2c0.1-1.4,0.2-2.7-1.2-3.8c-0.9-0.7-1.6-1.6-2.4-2.4
	c0.3-0.3,0.5-0.5,0.8-0.8C-173.2,162.3-172.4,163.2-171.4,164.2z"/>
</svg>
